<?xml version="1.0" encoding="UTF-8"?>
<svg width="501px" height="501px" viewBox="0 0 501 501" version="1.1" xmlns="http://www.w3.org/2000/svg" xmlns:xlink="http://www.w3.org/1999/xlink">
    <title>Shape</title>
    <defs>
        <linearGradient x1="50%" y1="0%" x2="50%" y2="100%" id="linearGradient-1">
            <stop stop-color="#3EC8E0" offset="0%"></stop>
            <stop stop-color="#0A84FF" offset="100%"></stop>
        </linearGradient>
    </defs>
    <g id="Page-1" stroke="none" stroke-width="1" fill="none" fill-rule="evenodd">
        <path d="M250.039151,500.939543 C386.803346,500.939543 500.04023,387.45951 500.04023,250.940471 C500.04023,114.176276 386.55839,0.9414 249.794195,0.9414 C113.274956,0.9414 0.04023,114.176276 0.04023,250.940471 C0.04023,387.45951 113.520414,500.939543 250.039151,500.939543 Z M181.657304,203.636879 C180.676979,194.078077 176.510219,185.499601 169.892394,179.37219 C191.461062,124.715403 225.774463,75.2057016 270.627493,35.2548012 C274.058883,35.500259 277.490273,35.9901708 280.921664,36.4805846 C248.813869,90.646958 229.451311,151.431156 224.794137,214.420961 C210.08825,211.969897 195.627821,208.29355 181.657304,203.636879 Z M68.6673837,133.293879 C103.716155,79.8628753 161.804332,42.1175818 227.980572,35.2548012 C190.725692,74.2253761 161.804332,119.568318 142.196316,168.833064 C135.334037,168.833064 127.980843,171.284128 121.608476,175.450386 C102.490873,163.685978 84.5985519,149.470003 68.6673837,133.293879 Z M295.872506,136.234856 C296.117462,158.538893 298.813483,180.597472 303.960568,201.921183 C299.548852,206.332899 296.362418,211.969897 294.646723,218.097307 C288.519312,218.587721 282.391901,218.832677 276.019534,218.832677 C268.666842,218.832677 261.313647,218.587721 254.205911,218.097307 C258.372671,158.048479 276.754904,100.696173 307.391959,49.960688 C299.303897,77.6567664 295.62755,106.578126 295.872506,136.234856 Z M325.529236,135.9899 C325.28428,107.80391 329.205582,79.6174174 337.539102,53.1471224 C385.578064,74.7157898 424.793595,113.685863 446.852174,161.479869 C421.117249,181.087886 392.195387,195.793772 361.313376,205.59753 C354.695551,196.52864 343.911469,190.646687 331.656647,190.401229 C327.980301,172.754366 325.774192,154.617089 325.529236,135.9899 Z M33.373657,250.940471 C33.373657,218.832677 40.4813936,188.440578 53.4715852,160.7445 C69.4027534,175.9408 86.8046608,189.420904 105.677308,200.6954 C105.186894,202.656553 105.186894,204.86216 105.186894,207.068269 C105.186894,220.058461 111.559261,231.577913 121.608476,238.685649 C116.46139,264.175619 113.76537,290.645914 113.76537,317.361667 C85.5788775,303.636106 58.6186706,286.234198 33.8635688,265.401402 C33.6186129,260.499273 33.373657,255.842601 33.373657,250.940471 Z M466.705147,250.940471 C466.705147,272.018725 463.517708,292.607067 457.636257,311.969625 C443.420784,319.567776 428.714897,326.185098 413.519099,331.822598 C389.98978,310.498886 370.381764,285.008917 355.675877,256.822926 C362.293702,251.185427 366.705418,243.342321 368.421113,234.518889 C400.283951,224.715132 430.430592,210.009245 457.881715,190.401229 C463.517708,209.76429 466.705147,230.107174 466.705147,250.940471 Z M223.568856,245.793386 C223.568856,277.656224 227.245202,309.028649 234.352938,339.665704 C230.186179,342.851636 226.754788,347.018396 224.304225,351.67557 C196.853103,347.50881 169.647438,340.401073 143.422099,330.351858 C142.686729,301.185543 144.892838,272.509139 150.529836,244.81306 C159.353267,243.097365 166.951418,238.440693 172.588415,231.822869 C189.009997,237.459866 206.166948,241.626626 223.568856,244.322647 C223.568856,244.81306 223.568856,245.302972 223.568856,245.793386 Z M276.019534,248.489407 C283.86264,248.489407 291.46079,248.244451 298.813483,247.509081 C304.695938,257.312838 314.990109,264.175619 326.999975,265.646358 C340.970492,293.832348 359.597681,319.812732 381.901718,342.116769 C352.979856,350.204831 323.568585,354.616547 293.911855,355.596872 C288.76477,342.60668 276.99986,333.292835 262.784387,331.57714 C256.656976,304.371475 253.225585,276.185485 253.225585,247.754037 C260.823735,248.244451 268.421384,248.489407 276.019534,248.489407 Z M41.4617191,309.028649 C64.5006238,325.449729 89.0102678,339.420246 114.745695,350.449787 C115.726021,376.675126 119.647825,402.655509 126.510103,428.14562 C85.8243353,399.469275 55.1872803,357.557523 41.4617191,309.028649 Z M250.039151,467.606266 C219.89251,467.606266 190.725692,461.233699 164.500353,449.46909 C154.206182,421.528005 147.588859,392.361438 145.137794,362.459653 C170.137852,371.038128 195.627821,377.410495 221.853161,381.086992 C226.509832,396.037885 240.235394,406.822169 256.656976,407.557488 C264.989993,427.165233 275.039209,446.282806 286.558661,464.419982 C274.548795,466.380784 262.539431,467.606266 250.039151,467.606266 Z M284.59801,397.263367 C288.0294,393.832027 290.970377,389.665368 292.931028,385.253652 C331.656647,384.02817 370.381764,377.655451 407.636643,365.400629 C413.028685,369.812345 418.91114,373.979105 424.548137,378.145815 C397.832886,414.420168 360.333051,442.361253 316.705804,456.821983 C304.205524,437.949487 293.421442,417.851559 284.59801,397.263367 Z" id="Shape" fill="url(#linearGradient-1)" fill-rule="nonzero"></path>
    </g>
</svg>